<svg width="246" height="188" viewBox="0 0 246 188" fill="none" xmlns="http://www.w3.org/2000/svg">
<path d="M9.472 128V64.256H24.32L24.64 72.64C26.304 70.08 28.6293 67.7973 31.616 65.792C34.6027 63.744 38.528 62.72 43.392 62.72C49.8773 62.72 54.6987 64.768 57.856 68.864C61.0133 72.96 62.592 78.6347 62.592 85.888V128H46.208V87.296C46.208 83.7547 45.4613 80.896 43.968 78.72C42.4747 76.5013 40.192 75.392 37.12 75.392C34.1333 75.392 31.5093 76.5013 29.248 78.72C26.9867 80.896 25.856 83.7547 25.856 87.296V128H9.472ZM104.566 129.28C95.1793 129.28 87.926 126.336 82.806 120.448C77.686 114.56 75.126 106.411 75.126 96C75.126 85.504 77.7713 77.3333 83.062 71.488C88.3527 65.6427 95.6913 62.72 105.078 62.72C114.507 62.72 121.675 65.7493 126.582 71.808C131.531 77.824 134.006 85.888 134.006 96C134.006 106.112 131.446 114.197 126.326 120.256C121.249 126.272 113.995 129.28 104.566 129.28ZM104.822 116.48C112.929 116.48 116.982 109.653 116.982 96C116.982 82.2613 112.929 75.392 104.822 75.392C100.811 75.392 97.6967 76.992 95.478 80.192C93.2593 83.3493 92.15 88.6187 92.15 96C92.15 103.339 93.2593 108.587 95.478 111.744C97.6967 114.901 100.811 116.48 104.822 116.48Z" fill="black"/>
<path d="M147.328 129.664C140.16 129.664 134.379 128.171 129.984 125.184C125.589 122.155 122.389 118.165 120.384 113.216C118.379 108.224 117.376 102.784 117.376 96.896C117.376 90.7093 118.507 85.0347 120.768 79.872C123.072 74.6667 126.421 70.5067 130.816 67.392C135.253 64.2773 140.672 62.72 147.072 62.72C156.629 62.72 163.307 65.4933 167.104 71.04C170.901 76.544 172.8 84.352 172.8 94.464C172.8 95.36 172.779 96.4907 172.736 97.856C172.693 99.2213 172.629 100.395 172.544 101.376H134.144C134.4 106.411 135.808 110.357 138.368 113.216C140.971 116.075 144.853 117.504 150.016 117.504C152.661 117.504 155.499 116.928 158.528 115.776C161.557 114.581 163.797 113.152 165.248 111.488L170.368 123.648C168.661 124.8 165.952 126.101 162.24 127.552C158.571 128.96 153.6 129.664 147.328 129.664ZM134.016 91.392H156.544C156.544 86.912 156.139 83.4987 155.328 81.152C154.56 78.7627 153.493 77.12 152.128 76.224C150.763 75.328 149.205 74.88 147.456 74.88C143.104 74.88 139.84 76.5013 137.664 79.744C135.488 82.944 134.272 86.8267 134.016 91.392ZM184.832 53.888V36.864H202.752V53.888H184.832ZM182.144 160L176.64 150.272C179.328 150.187 181.504 148.736 183.168 145.92C184.875 143.147 185.728 139.648 185.728 135.424V64.256H201.6V136.064C201.429 144.299 199.637 150.251 196.224 153.92C192.811 157.589 188.117 159.616 182.144 160ZM216.96 53.888V36.864H234.88V53.888H216.96ZM217.6 128V64.256H234.24V128H217.6Z" fill="black"/>
</svg>
