<svg width="423" height="185" viewBox="0 0 423 185" fill="none" xmlns="http://www.w3.org/2000/svg">
<path d="M19.6035 132.496V48.528H34.7075L86.6755 115.344V48.528H101.78V132.496H114.196V138H85.3955L34.7075 72.72V138H7.1875V132.496H19.6035ZM221.708 132.496V138H114.188V132.496H143.5C136.502 128.485 130.956 122.981 126.86 115.984C122.849 108.987 120.844 101.179 120.844 92.56C120.844 79.4187 125.366 68.4533 134.412 59.664C143.457 50.7893 154.636 46.352 167.948 46.352C181.26 46.352 192.438 50.7893 201.484 59.664C210.529 68.4533 215.052 79.4187 215.052 92.56C215.052 101.093 213.004 108.901 208.908 115.984C204.897 123.067 199.393 128.571 192.396 132.496H221.708ZM190.348 69.648C184.289 63.3333 176.822 60.176 167.948 60.176C159.073 60.176 151.564 63.3333 145.42 69.648C139.361 75.9627 136.332 83.6427 136.332 92.688C136.332 101.648 139.361 109.285 145.42 115.6C151.564 121.915 159.073 125.072 167.948 125.072C176.822 125.072 184.289 121.915 190.348 115.6C196.492 109.285 199.564 101.648 199.564 92.688C199.564 83.6427 196.492 75.9627 190.348 69.648ZM234.104 132.496V48.528H296.951V62.736H249.208V86.416H292.088V99.856H249.208V123.792H298.488V132.496H310.904V138H221.688V132.496H234.104ZM375.965 132.496V138H305.438V132.496H319.518C315.763 130.789 312.392 128.357 309.406 125.2L317.982 113.296C323.784 118.843 329.459 121.616 335.006 121.616C338.931 121.616 342.259 120.293 344.99 117.648C347.806 115.003 349.214 111.035 349.214 105.744V62.096H320.798V48.528H364.318V104.976C364.318 118.288 359.923 127.461 351.134 132.496H375.965ZM388.354 132.496V48.528H403.458V132.496H415.874V138H375.938V132.496H388.354Z" fill="black"/>
<rect x="389" y="20" width="14" height="14" stroke="black" stroke-width="2"/>
<rect x="334" y="20" width="30" height="14" stroke="black" stroke-width="2"/>
</svg>
