<svg width="272" height="193" viewBox="0 0 272 193" fill="none" xmlns="http://www.w3.org/2000/svg">
<path d="M76 81.875C76 107.208 74.9583 122.042 72.875 126.375L63.75 125.625C59.1667 117.708 51.4583 106.583 40.625 92.25C36.375 86.5833 32.125 80.9583 27.875 75.375C23.7083 69.7917 19.875 64.25 16.375 58.75C14.7083 66.1667 13.875 81 13.875 103.25C13.875 111.75 13.7083 118.917 13.375 124.75C11.7917 126.25 10.0417 127 8.125 127C6.29167 127 5 126.792 4.25 126.375C3.5 126.042 3.125 125.458 3.125 124.625C3.125 123.708 3.20833 122.333 3.375 120.5C3.625 118.583 3.875 115.417 4.125 111C4.45833 106.583 4.75 101.917 5 97C5.66667 84.1667 6 73.125 6 63.875C6 54.5417 5.91667 46.875 5.75 40.875C7.58333 39.2083 9 38 10 37.25C11 36.5 12.125 36.5417 13.375 37.375C14.625 38.125 16.2083 39.8333 18.125 42.5C20.125 45.0833 22.9167 48.9583 26.5 54.125C38.75 71.5417 50.7917 87.875 62.625 103.125L65 40.875C65.9167 39.2083 66.8333 38.0833 67.75 37.5C68.6667 36.8333 69.875 36.5 71.375 36.5C74.2917 36.5 75.75 39.1667 75.75 44.5L75.625 49.125L76 81.875ZM86.75 102.25C86.75 92.4167 91 84.5 99.5 78.5C106.25 73.75 114.375 70.875 123.875 69.875C124.375 69.875 125.542 69.875 127.375 69.875C129.208 69.875 131.667 70.4167 134.75 71.5C141.583 73.8333 146.25 77.9583 148.75 83.875C149.75 86.2083 150.25 88.2083 150.25 89.875C150.25 91.4583 150.208 92.5833 150.125 93.25C150.125 103.667 146.167 111.875 138.25 117.875C130.917 123.375 121.75 126.125 110.75 126.125C102.833 126.125 96.8333 124.292 92.75 120.625C88.75 116.958 86.75 110.833 86.75 102.25ZM95.375 105.25C95.375 110.417 96.75 113.917 99.5 115.75C101.583 117.083 105.083 117.75 110 117.75C114.917 117.75 119.25 117.375 123 116.625C126.75 115.875 130.083 114.583 133 112.75C139.25 108.75 142.375 102.542 142.375 94.125C142.375 89.125 141.042 85.0417 138.375 81.875C135.458 78.4583 131.625 76.75 126.875 76.75C123.625 77.3333 120.333 77.9583 117 78.625C113.75 79.2917 110.667 80.5833 107.75 82.5C101.417 86.5833 97.2917 94.1667 95.375 105.25ZM181.125 117.25C188.458 117.25 199.5 113.917 214.25 107.25C215.167 107.25 215.917 107.583 216.5 108.25C217.083 108.833 217.375 109.542 217.375 110.375C214.042 116.042 207.667 120.458 198.25 123.625C188.833 126.792 180.042 127.333 171.875 125.25C162.625 122.833 157 117.625 155 109.625C154.833 108.042 154.75 105.917 154.75 103.25C154.75 100.583 155.417 97.0833 156.75 92.75C158.167 88.3333 160.542 84.1667 163.875 80.25C167.208 76.3333 171.125 73.25 175.625 71C180.125 68.75 184.917 67.625 190 67.625C194.833 67.625 200.25 69.2917 206.25 72.625C209.083 74.2083 211.333 76 213 78C214.667 80 215.5 82.0417 215.5 84.125C215.5 84.7083 215.458 85.2917 215.375 85.875C215.208 90.9583 212.75 94.1667 208 95.5C205.917 96.0833 203.5 96.375 200.75 96.375L182.75 95.625C176.75 95.625 172.167 96.9167 169 99.5C167.167 100.917 165.875 103.042 165.125 105.875C167.208 113.458 172.542 117.25 181.125 117.25ZM203.375 78.625C201.542 77.2917 199.625 76.3333 197.625 75.75C195.625 75.1667 193.958 74.875 192.625 74.875C191.292 74.875 189.125 75.3333 186.125 76.25C183.125 77.0833 180.458 78.0417 178.125 79.125C172.375 81.7917 169.5 84.5833 169.5 87.5C176.167 88.0833 181.167 88.375 184.5 88.375C193.75 88.375 200 87.5833 203.25 86C205.25 85.1667 206.25 84.125 206.25 82.875C206.25 81.375 205.292 79.9583 203.375 78.625ZM243.125 151C243.125 164.917 239.458 171.875 232.125 171.875C231.375 171.875 230.417 171.833 229.25 171.75C228.167 171.75 226.5 171.583 224.25 171.25C222.083 171 219.875 170.5 217.625 169.75C212.208 167.917 208.75 165.25 207.25 161.75C207.25 161.5 207.458 160.917 207.875 160C208.625 158.333 209 157.375 209 157.125C211.75 159.208 214.708 161.167 217.875 163C221.042 164.833 224.417 165.75 228 165.75C230.417 165.75 232.333 164 233.75 160.5C235.083 157.5 235.75 154.5 235.75 151.5C235.75 143.417 235.167 132.917 234 120C232.333 100.583 231.5 88.25 231.5 83C231.5 77.6667 231.583 73.3333 231.75 70C231.5 68 232.417 66.5 234.5 65.5C236.083 64.75 237.833 64.375 239.75 64.375C239 69.5417 238.625 73.625 238.625 76.625C238.625 79.625 238.625 82.75 238.625 86C238.708 89.1667 238.958 93.8333 239.375 100C239.875 106.167 240.417 112.333 241 118.5C242.417 131.917 243.125 142.75 243.125 151ZM235.25 37.625C236.583 38.5417 237.25 40 237.25 42C237.25 44 236.5 45.2083 235 45.625C234.917 45.625 234.583 45.625 234 45.625C233.5 45.625 232.625 45.0833 231.375 44C231.375 41.3333 232 39.4167 233.25 38.25C233.75 37.8333 234.417 37.625 235.25 37.625ZM258.875 67.25C259.958 82.8333 260.875 100.875 261.625 121.375C261.125 123.958 259.125 125.25 255.625 125.25C254.708 125.25 253.75 125.083 252.75 124.75C251.833 124.333 251.25 123.792 251 123.125V67.25H258.875ZM247.25 50.25C247.25 47.3333 248.958 45.875 252.375 45.875C254.625 45.875 256.458 46.375 257.875 47.375C258.125 48.2917 258.25 49.2083 258.25 50.125C258.25 50.9583 257.917 51.7917 257.25 52.625C256.583 53.4583 255.583 53.875 254.25 53.875C252.917 53.875 251.583 53.5833 250.25 53C248.917 52.3333 247.917 51.4167 247.25 50.25Z" fill="black"/>
<path d="M230.219 52.9375C230.219 53.3542 229.896 53.5625 229.25 53.5625C228.625 53.5625 228.083 53.3438 227.625 52.9062C227.167 52.4479 226.76 51.875 226.406 51.1875C226.052 50.4792 225.75 49.7083 225.5 48.875C225.271 48.0208 225.083 47.1875 224.938 46.375C224.625 44.8333 224.469 43.6979 224.469 42.9688C224.469 42.2188 224.552 41.3542 224.719 40.375C224.885 39.375 225.125 38.2917 225.438 37.125C225.75 35.9583 226.125 34.7812 226.562 33.5938C227.021 32.3854 227.521 31.2917 228.062 30.3125C229.292 28.1042 230.531 27 231.781 27C232.01 27 232.208 27.0208 232.375 27.0625C232.562 27.1042 232.708 27.2604 232.812 27.5312C230.854 30.3021 229.552 32.3646 228.906 33.7188C228.281 35.0729 227.812 36.3646 227.5 37.5938C227.208 38.8021 227.062 40.0312 227.062 41.2812C227.062 42.5104 227.229 43.6146 227.562 44.5938C227.896 45.5521 228.25 46.4896 228.625 47.4062C229.021 48.3229 229.385 49.2396 229.719 50.1562C230.052 51.0729 230.219 52 230.219 52.9375Z" fill="black"/>
<path d="M256.688 38.1562L256.625 37.6562C256.625 37.1771 256.75 36.875 257 36.75C257.25 36.6042 257.583 36.5312 258 36.5312C259.729 36.5312 261.271 37.5 262.625 39.4375C264.25 41.8333 265.344 44.9583 265.906 48.8125C266.052 49.8333 266.125 50.6354 266.125 51.2188C266.125 51.7812 266.052 52.4167 265.906 53.125C265.781 53.8125 265.583 54.5521 265.312 55.3438C265.062 56.1146 264.75 56.8958 264.375 57.6875C264.021 58.4792 263.604 59.1979 263.125 59.8438C262.083 61.2812 260.979 62 259.812 62C259.729 62 259.615 61.9375 259.469 61.8125C259.344 61.6875 259.281 61.5833 259.281 61.5C259.635 60.625 260.083 59.8125 260.625 59.0625C261.167 58.2917 261.688 57.5312 262.188 56.7812C262.688 56.0104 263.115 55.2188 263.469 54.4062C263.823 53.5729 264 52.4896 264 51.1562C264 49.8021 263.802 48.5 263.406 47.25C263.031 46 262.51 44.8646 261.844 43.8438C261.177 42.8229 260.396 41.8646 259.5 40.9688C258.625 40.0729 257.688 39.1354 256.688 38.1562Z" fill="black"/>
</svg>
